<svg viewBox="-4 -4 45 45" xmlns="http://www.w3.org/2000/svg">
<g>
<path fill="black" d="M0,7L7,7L7,0L0,0Z M6,1L6,6L1,6L1,1Z M0,9L1,9L1,8L0,8Z M0,14L0,17L1,17L1,14Z M0,21L1,21L1,20L2,20L2,19L0,19Z M0,23L1,23L1,22L0,22Z M0,25L2,25L2,24L5,24L5,23L3,23L3,21L1,21L1,22L2,22L2,23L1,23L1,24L0,24Z M0,37L7,37L7,30L0,30Z M6,31L6,36L1,36L1,31Z M1,13L2,13L2,14L3,14L3,12L4,12L4,11L1,11Z M1,18L3,18L3,17L1,17Z M2,5L5,5L5,2L2,2Z M2,27L2,29L4,29L4,28L3,28L3,27Z M2,35L5,35L5,32L2,32Z M3,10L4,10L4,11L5,11L5,12L4,12L4,13L9,13L9,14L3,14L3,16L4,16L4,15L10,15L10,13L11,13L11,11L10,11L10,12L9,12L9,10L8,10L8,9L9,9L9,8L11,8L11,9L13,9L13,10L15,10L15,9L16,9L16,10L17,10L17,11L18,11L18,9L17,9L17,8L18,8L18,7L17,7L17,6L16,6L16,7L15,7L15,8L14,8L14,7L13,7L13,6L12,6L12,5L11,5L11,4L12,4L12,3L11,3L11,2L10,2L10,4L8,4L8,5L9,5L9,6L8,6L8,8L3,8Z M7,9L7,10L5,10L5,9Z M7,11L7,12L6,12L6,11Z M9,6L10,6L10,7L9,7Z M11,6L12,6L12,7L11,7Z M3,19L5,19L5,18L6,18L6,17L5,17L5,16L4,16L4,18L3,18Z M3,21L4,21L4,20L3,20Z M3,25L3,27L4,27L4,25Z M4,22L5,22L5,21L4,21Z M4,28L5,28L5,27L4,27Z M5,19L5,21L8,21L8,22L9,22L9,20L8,20L8,19L7,19L7,20L6,20L6,19Z M5,23L7,23L7,24L6,24L6,25L8,25L8,22L5,22Z M5,25L5,27L7,27L7,26L6,26L6,25Z M5,29L8,29L8,34L9,34L9,32L10,32L10,31L11,31L11,30L12,30L12,32L13,32L13,29L14,29L14,32L13,32L13,34L14,34L14,35L12,35L12,33L11,33L11,36L12,36L12,37L13,37L13,36L15,36L15,35L17,35L17,34L19,34L19,33L16,33L16,34L15,34L15,33L16,33L16,32L18,32L18,30L17,30L17,28L15,28L15,26L14,26L14,27L13,27L13,28L12,28L12,27L10,27L10,28L11,28L11,29L10,29L10,30L9,30L9,28L5,28Z M16,30L16,31L15,31L15,30Z M6,17L7,17L7,16L6,16Z M6,19L7,19L7,18L6,18Z M8,1L10,1L10,0L8,0Z M8,17L9,17L9,16L8,16Z M8,27L9,27L9,26L10,26L10,25L11,25L11,24L10,24L10,23L11,23L11,22L12,22L12,23L13,23L13,20L12,20L12,18L13,18L13,17L12,17L12,13L11,13L11,15L10,15L10,16L11,16L11,17L9,17L9,20L11,20L11,21L10,21L10,22L9,22L9,25L8,25Z M11,18L11,19L10,19L10,18Z M8,37L9,37L9,36L8,36Z M9,34L9,36L10,36L10,34Z M10,10L11,10L11,9L10,9Z M10,33L11,33L11,32L10,32Z M11,0L11,2L12,2L12,0Z M11,11L13,11L13,10L11,10Z M11,24L12,24L12,23L11,23Z M12,5L13,5L13,6L14,6L14,5L16,5L16,4L15,4L15,3L14,3L14,2L13,2L13,4L12,4Z M12,13L14,13L14,12L16,12L16,13L18,13L18,12L17,12L17,11L13,11L13,12L12,12Z M12,25L13,25L13,24L12,24Z M13,1L14,1L14,0L13,0Z M13,17L14,17L14,18L15,18L15,19L17,19L17,18L16,18L16,16L17,16L17,14L16,14L16,15L15,15L15,14L13,14Z M15,16L15,17L14,17L14,16Z M13,24L14,24L14,25L15,25L15,24L16,24L16,23L15,23L15,20L14,20L14,23L13,23Z M14,7L15,7L15,6L14,6Z M15,1L16,1L16,0L15,0Z M15,14L16,14L16,13L15,13Z M15,26L16,26L16,27L17,27L17,26L18,26L18,22L19,22L19,25L21,25L21,24L22,24L22,25L21,25L21,28L20,28L20,32L21,32L21,33L22,33L22,35L23,35L23,36L24,36L24,35L27,35L27,33L25,33L25,32L24,32L24,31L25,31L25,32L26,32L26,30L24,30L24,29L22,29L22,28L24,28L24,27L23,27L23,26L24,26L24,27L25,27L25,26L27,26L27,25L26,25L26,24L25,24L25,25L24,25L24,24L23,24L23,23L24,23L24,22L25,22L25,21L26,21L26,19L30,19L30,18L29,18L29,16L28,16L28,15L29,15L29,16L30,16L30,18L31,18L31,19L33,19L33,18L32,18L32,14L33,14L33,13L31,13L31,12L34,12L34,11L36,11L36,9L35,9L35,10L33,10L33,8L32,8L32,10L31,10L31,11L30,11L30,12L29,12L29,13L30,13L30,14L28,14L28,13L27,13L27,14L26,14L26,16L27,16L27,17L26,17L26,18L25,18L25,20L24,20L24,19L23,19L23,20L22,20L22,21L23,21L23,22L22,22L22,23L21,23L21,19L20,19L20,21L18,21L18,19L17,19L17,20L16,20L16,22L17,22L17,25L15,25Z M21,29L22,29L22,31L21,31Z M24,33L24,34L23,34L23,33Z M31,14L31,15L30,15L30,14Z M16,1L16,4L17,4L17,5L18,5L18,3L19,3L19,4L20,4L20,1L19,1L19,2L17,2L17,1Z M17,17L18,17L18,19L19,19L19,18L21,18L21,19L23,19L23,18L22,18L22,17L21,17L21,16L23,16L23,17L25,17L25,16L24,16L24,15L25,15L25,14L24,14L24,12L20,12L20,10L19,10L19,13L23,13L23,14L21,14L21,15L20,15L20,17L19,17L19,16L17,16Z M17,28L18,28L18,27L17,27Z M17,36L18,36L18,35L17,35Z M18,1L19,1L19,0L18,0Z M18,7L19,7L19,6L18,6Z M18,9L21,9L21,8L22,8L22,7L21,7L21,6L20,6L20,7L19,7L19,8L18,8Z M18,15L20,15L20,14L18,14Z M18,27L20,27L20,26L18,26Z M18,28L18,30L19,30L19,28Z M19,36L20,36L20,35L21,35L21,33L20,33L20,34L19,34Z M21,1L22,1L22,0L21,0Z M21,6L22,6L22,5L21,5Z M21,11L24,11L24,12L25,12L25,9L26,9L26,11L30,11L30,10L31,10L31,8L29,8L29,0L28,0L28,3L27,3L27,5L28,5L28,7L27,7L27,5L26,5L26,8L25,8L25,5L24,5L24,7L23,7L23,9L24,9L24,10L23,10L23,9L22,9L22,10L21,10Z M29,9L29,10L27,10L27,9Z M22,2L24,2L24,3L22,3L22,4L23,4L23,5L24,5L24,4L25,4L25,5L26,5L26,2L25,2L25,1L26,1L26,0L24,0L24,1L22,1Z M22,7L23,7L23,6L22,6Z M24,29L25,29L25,28L24,28Z M24,37L25,37L25,36L24,36Z M25,14L26,14L26,13L25,13Z M25,23L26,23L26,22L25,22Z M26,13L27,13L27,12L26,12Z M26,24L27,24L27,23L26,23Z M26,30L27,30L27,31L28,31L28,35L29,35L29,33L31,33L31,35L33,35L33,32L34,32L34,31L36,31L36,32L37,32L37,28L36,28L36,29L34,29L34,28L35,28L35,27L36,27L36,26L35,26L35,24L33,24L33,25L34,25L34,27L33,27L33,28L28,28L28,27L27,27L27,28L26,28Z M28,29L28,30L27,30L27,29Z M32,29L32,32L29,32L29,29Z M27,22L28,22L28,25L29,25L29,24L32,24L32,23L31,23L31,22L30,22L30,23L29,23L29,21L31,21L31,22L33,22L33,23L34,23L34,20L36,20L36,21L35,21L35,22L36,22L36,26L37,26L37,14L33,14L33,15L36,15L36,17L35,17L35,18L34,18L34,19L33,19L33,21L32,21L32,20L28,20L28,21L27,21Z M27,35L27,37L28,37L28,35Z M28,27L31,27L31,26L28,26Z M30,7L37,7L37,0L30,0Z M36,1L36,6L31,6L31,1Z M30,31L31,31L31,30L30,30Z M30,36L31,36L31,35L30,35Z M31,26L32,26L32,27L33,27L33,25L31,25Z M31,37L33,37L33,36L31,36Z M32,5L35,5L35,2L32,2Z M33,18L34,18L34,17L35,17L35,16L33,16Z M34,13L37,13L37,12L34,12Z M34,36L36,36L36,37L37,37L37,34L36,34L36,32L35,32L35,33L34,33Z M36,34L36,35L35,35L35,34Z M36,9L37,9L37,8L36,8Z" />
</g>
<rect x="-4" y="-4" width="45" height="45" stroke="none" fill="none" />
</svg>